<svg enable-background="new 0 0 1000 1000" viewBox="0 0 1000 1000" xmlns="http://www.w3.org/2000/svg"><path d="m56.9 563.2c-13.1 29.1-19.5 56.6-17.6 81.4 16.4 205.4 321.3 279.8 528.2 243.3-79.8-15.8-171.8-59.6-249.3-118.2-98.8-43.9-200.3-120.3-261.3-206.5z" fill="#00a0c6"/><path d="m733.4 179.8c-31.8-54.2-71.6-84.8-115.4-74.7-39.3 9.1-93.5 34.3-153.1 69.8 100.2-7.3 197.6-5.5 268.5 4.9z" fill="#00a0c6"/><path d="m936.9 267.8c-22.5-6.6-52.1-11.2-86.6-13.8 16.4 58.2-1 148.2-40.7 239 3.7 120-18.2 240-75.8 314.3-31.3 40.4-92.6 67.5-166.3 80.5 46.4 9.2 88.6 9 121.4-3.2 236.1-87.6 409.9-569.5 248-616.8z" fill="#f0047f"/><path d="m733.8 807.3c57.7-74.3 79.5-194.3 75.9-314.3-58.4 133.7-165.1 269.2-283.3 308-53.4 17.5-129.9 3.3-208.1-31.4 77.5 58.7 169.5 102.4 249.3 118.2 73.6-13 134.9-40.1 166.2-80.5z" fill="#00a0c6"/><path d="m733.8 807.3c57.7-74.3 79.5-194.3 75.9-314.3-58.4 133.7-165.1 269.2-283.3 308-53.4 17.5-129.9 3.3-208.1-31.4 77.5 58.7 169.5 102.4 249.3 118.2 73.6-13 134.9-40.1 166.2-80.5z" fill="#000363"/><path d="m850.3 254c-8.3-29.5-25.3-50.8-52.6-59.9-17.4-5.8-39.2-10.6-64.4-14.3 12.2 20.7 23.2 44.9 32.8 71.6 30.3-.2 58.6.6 84.2 2.6z" fill="#f7e002"/><path d="m464.8 175c-191.7 14.1-394.1 61.9-442.3 148-42.8 76.7-20.8 162.4 34.3 240.2 59-131.3 252-295.2 408-388.2z" fill="#f7e002"/><path d="m318.2 769.6c-124-93.8-210.9-225.9-151-343.3 58.1-114 377.4-173.5 599-175-9.6-26.7-20.7-50.8-32.8-71.6-70.8-10.4-168.2-12.2-268.6-4.8-156 93-349 256.9-408 388.3 61.1 86.2 162.6 162.6 261.4 206.4z" fill="#00a0c6"/><path d="m318.2 769.6c-124-93.8-210.9-225.9-151-343.3 58.1-114 377.4-173.5 599-175-9.6-26.7-20.7-50.8-32.8-71.6-70.8-10.4-168.2-12.2-268.6-4.8-156 93-349 256.9-408 388.3 61.1 86.2 162.6 162.6 261.4 206.4z" fill="#008d02"/><path d="m766.2 251.4c25.1 69.3 40.8 155.5 43.4 241.6 39.7-90.9 57.1-180.8 40.7-239-25.6-2-53.9-2.8-84.1-2.6z" fill="#f0047f"/><path d="m766.2 251.4c25.1 69.3 40.8 155.5 43.4 241.6 39.7-90.9 57.1-180.8 40.7-239-25.6-2-53.9-2.8-84.1-2.6z" fill="#e80401"/><path d="m167.2 426.3c-59.8 117.4 27.1 249.5 151 343.3 78.2 34.7 154.7 48.9 208.1 31.4 118.2-38.8 224.9-174.3 283.3-308-2.6-86.1-18.4-172.3-43.4-241.6-221.6 1.5-541 61-599 174.9z" fill="#00a0c6"/><path d="m167.2 426.3c-59.8 117.4 27.1 249.5 151 343.3 78.2 34.7 154.7 48.9 208.1 31.4 118.2-38.8 224.9-174.3 283.3-308-2.6-86.1-18.4-172.3-43.4-241.6-221.6 1.5-541 61-599 174.9z" fill="#f0047f"/><path d="m167.2 426.3c-59.8 117.4 27.1 249.5 151 343.3 78.2 34.7 154.7 48.9 208.1 31.4 118.2-38.8 224.9-174.3 283.3-308-2.6-86.1-18.4-172.3-43.4-241.6-221.6 1.5-541 61-599 174.9z" fill="#000301"/><g fill="#fff"><path d="m255.4 450.9h83v22.8h-57.4v33.1h52.9v22.8h-52.9v35.3h57.4v22.8h-83z"/><path d="m356.6 488.5c0-25.1 14.4-39.6 48.2-39.6 12.6 0 25.6 1.6 36.8 4.5l-2.8 22.4c-11-2.1-23.8-3.5-33.1-3.5-17.7 0-23.4 6.2-23.4 20.7v52.6c0 14.6 5.7 20.7 23.4 20.7 9.4 0 22.2-1.4 33.1-3.5l2.8 22.4c-11.2 2.9-24.2 4.5-36.8 4.5-33.8 0-48.2-14.6-48.2-39.6z"/><path d="m536.8 587.7v-57.7h-50.2v57.7h-25.6v-136.8h25.6v56.3h50.2v-56.3h25.6v136.8z"/><path d="m687.3 547.7c0 22.8-13 42.1-51.3 42.1-38.2 0-51.3-19.3-51.3-42.1v-56.7c0-22.8 13-42.1 51.3-42.1 38.2 0 51.3 19.3 51.3 42.1zm-76.8-1.5c0 12.9 6.5 20.7 25.6 20.7s25.6-7.8 25.6-20.7v-53.8c0-12.9-6.5-20.7-25.6-20.7s-25.6 7.8-25.6 20.7z"/></g></svg>